PathFileType	4	(X/Y/Z)	D:\TRACE\spotREDO_2-26-24\spot_Both_Motion_3_6-platform.trc
DataRate	CameraRate	NumFrames	NumMarkers	Units	OrigDataRate	OrigDataStartFrame	OrigNumFrames
100.00	100.00	      30	5	mm	100.00	876	      7000
Frame#	Time	Left_Front			Right_Front			Left_Aft			Right_Aft			Post			
		X1	Y1	Z1	X2	Y2	Z2	X3	Y3	Z3	X4	Y4	Z4	X5	Y5	Z5	

876	8.750	-693.31427	-37.57262	-583.39807	721.40765	-24.29498	-498.68561	-765.45837	38.46193	632.84430	803.88654	45.84830	638.08325	1.03800	564.38446	-1024.69690	
877	8.760	-693.20581	-37.71063	-583.47015	721.55060	-24.27983	-498.72714	-764.99854	38.56274	632.87988	804.14404	45.88032	638.03900	1.45938	564.19843	-1024.85730	
878	8.770	-693.02386	-37.86462	-583.48169	721.78302	-24.37111	-498.81143	-764.86877	38.77190	632.80096	804.41132	45.88633	637.97308	1.71263	563.95862	-1024.90515	
879	8.780	-692.91040	-38.00297	-583.52643	722.05841	-24.51456	-498.77258	-764.85339	38.83416	632.68945	804.57770	46.00703	637.95142	1.90528	563.64655	-1024.95374	
880	8.790	-692.74646	-38.10970	-583.55487	722.29358	-24.64679	-498.74521	-764.74951	39.05180	632.61707	804.76788	46.33318	637.97449	1.91793	563.43976	-1024.92395	
881	8.800	-692.66687	-38.17341	-583.58398	722.28467	-24.69275	-498.88791	-764.59058	39.26139	632.49872	804.96454	46.55429	638.01984	1.93079	563.35248	-1024.97571	
882	8.810	-692.50000	-38.22052	-583.57727	722.37231	-24.76574	-498.91211	-764.36188	39.43499	632.41913	805.18695	46.74817	637.98828	2.24125	562.97723	-1025.09766	
883	8.820	-692.32910	-38.29761	-583.51093	722.58954	-24.79650	-498.85641	-764.23340	39.47169	632.31128	805.42511	46.82080	637.95758	2.43824	562.62805	-1025.24878	
884	8.830	-692.03082	-38.53691	-583.62689	722.74933	-24.92802	-498.93011	-764.25891	39.52171	632.31274	805.58533	46.87357	637.92236	2.45087	562.51855	-1025.38293	
885	8.840	-691.69427	-38.66276	-583.63556	723.00000	-25.18245	-498.89514	-764.14081	39.49657	632.26971	805.71655	46.95213	637.85718	2.75395	562.31659	-1025.73694	
886	8.850	-691.39478	-38.94568	-583.59204	723.16077	-25.21710	-498.87354	-764.00543	39.61814	632.33789	805.87518	46.97079	637.84509	2.88050	562.27368	-1025.94788	
887	8.860	-691.25916	-38.85271	-583.75946	723.25458	-25.28143	-498.88632	-763.67249	39.78456	632.36316	805.94281	47.05089	637.76025	3.15936	562.15924	-1026.15454	
888	8.870	-691.15369	-38.89035	-583.80353	723.35394	-25.30725	-498.90952	-763.56964	39.78231	632.27924	806.04596	47.04689	637.76978	3.26387	562.07666	-1026.33765	
889	8.880	-691.04309	-38.92241	-583.80951	723.44476	-25.38431	-498.96835	-763.41846	39.78540	632.30054	806.11963	47.09290	637.71179	3.30999	562.06061	-1026.40649	
890	8.890	-690.96240	-38.94547	-583.83270	723.52911	-25.43867	-498.95212	-763.21027	39.79708	632.33984	806.20361	47.08281	637.70831	3.39541	562.01453	-1026.41467	
891	8.900	-690.88043	-38.93699	-583.85571	723.61475	-25.47171	-498.99640	-763.07080	39.84667	632.34460	806.27576	47.12832	637.71564	3.56428	562.00958	-1026.36536	
892	8.910	-690.79608	-38.94446	-583.79218	723.72113	-25.43192	-499.04910	-762.91174	39.82903	632.31866	806.47015	47.17429	637.73285	3.69598	562.01453	-1026.24670	
893	8.920	-690.74872	-38.90862	-583.80579	723.76648	-25.26602	-499.18378	-762.80261	39.84923	632.32977	806.48932	47.16987	637.74072	3.78124	561.93927	-1026.08374	
894	8.930	-690.67346	-38.90923	-583.84979	723.91571	-25.23540	-499.17624	-762.76312	39.83747	632.27985	806.62952	47.18344	637.71436	3.98757	561.87915	-1025.92468	
895	8.940	-690.55389	-38.90464	-583.85815	723.99664	-25.29636	-499.21576	-762.64551	39.86814	632.26910	806.64539	47.14506	637.66931	3.88820	561.88239	-1025.78357	
896	8.950	-690.58350	-38.93915	-583.83972	724.04340	-25.22370	-499.27426	-762.57184	39.95473	632.25165	806.72162	47.26905	637.73486	4.11970	561.73755	-1025.73645	
897	8.960	-690.49347	-38.94832	-583.89471	724.11047	-25.37744	-499.16797	-762.57458	40.06555	632.30084	806.83490	47.34285	637.77844	4.26248	561.54767	-1025.82581	
898	8.970	-690.49414	-38.99283	-583.77905	724.35999	-25.67780	-499.06488	-762.49188	39.99702	632.27710	806.79614	47.16203	637.69531	4.30922	561.51263	-1025.98914	
899	8.980	-690.39746	-39.02394	-583.82178	724.39569	-25.50910	-499.11877	-762.38037	40.09031	632.35138	806.86890	47.29462	637.74329	4.35782	561.57404	-1026.09558	
900	8.990	-690.25854	-39.03232	-583.92334	724.49628	-25.42116	-499.06873	-762.22534	40.04760	632.33215	806.92328	47.17754	637.70050	4.25157	561.60486	-1026.51855	
901	9.000	-690.20996	-38.98120	-583.88574	724.49603	-25.39331	-499.16583	-762.33051	39.93600	632.26868	806.98511	47.21121	637.72595	4.19195	561.73669	-1026.63208	
902	9.010	-690.11902	-38.93174	-583.82050	724.86481	-25.61439	-499.10550	-762.10858	40.01297	632.35553	807.13531	47.29200	637.82159	4.17623	561.77380	-1026.74670	
903	9.020	-690.10016	-38.80962	-583.75513	724.94098	-25.56487	-498.90570	-762.16260	39.86886	632.33472	807.16846	47.29614	637.85480	4.29776	561.80127	-1026.72412	
904	9.030	-689.98151	-38.83225	-583.79755	725.01056	-25.55495	-498.98138	-762.15765	39.77945	632.29498	807.24554	47.08460	637.82056	4.48328	561.86707	-1026.39185	
905	9.040	-689.95129	-38.80527	-583.79510	724.95050	-25.44187	-499.00333	-762.13745	39.51652	632.36237	807.18732	46.97395	637.70209	4.52206	561.94019	-1026.29382	
